<?xml version="1.0" standalone="no"?>
<!DOCTYPE svg PUBLIC "-//W3C//DTD SVG 20010904//EN"
 "http://www.w3.org/TR/2001/REC-SVG-20010904/DTD/svg10.dtd">
<svg version="1.0" xmlns="http://www.w3.org/2000/svg"
 width="80.000000pt" height="80.000000pt" viewBox="0 0 80.000000 80.000000"
 preserveAspectRatio="xMidYMid meet">
<metadata>
Created by potrace 1.16, written by Peter Selinger 2001-2019
</metadata>
<g transform="translate(0.000000,80.000000) scale(0.100000,-0.100000)"
fill="#000000" stroke="none">
<path d="M162 734 c-44 -22 -100 -90 -107 -128 -4 -17 -5 -121 -3 -231 3 -191
4 -202 26 -233 13 -17 40 -44 59 -60 l36 -27 227 0 227 0 36 27 c19 16 46 43
59 60 22 32 23 39 23 259 l0 226 -27 36 c-16 19 -43 46 -60 59 -32 22 -41 23
-248 26 -184 2 -220 0 -248 -14z m456 -64 c66 -40 72 -63 72 -270 0 -167 -2
-188 -20 -218 -40 -66 -63 -72 -270 -72 -207 0 -230 6 -270 72 -18 30 -20 51
-20 218 0 207 6 230 72 270 30 18 51 20 218 20 167 0 188 -2 218 -20z"/>
<path d="M315 573 c-70 -37 -105 -94 -105 -173 0 -111 79 -190 190 -190 111 0
190 79 190 190 0 113 -79 190 -192 190 -29 -1 -66 -8 -83 -17z m153 -63 c36
-22 62 -72 62 -117 0 -64 -67 -123 -137 -123 -64 0 -123 67 -123 137 0 93 116
153 198 103z"/>
</g>
</svg>
