<?xml version="1.0" standalone="no"?>
<!DOCTYPE svg PUBLIC "-//W3C//DTD SVG 20010904//EN"
 "http://www.w3.org/TR/2001/REC-SVG-20010904/DTD/svg10.dtd">
<svg version="1.0" xmlns="http://www.w3.org/2000/svg"
 width="417.000000pt" height="417.000000pt" viewBox="0 0 417.000000 417.000000"
 preserveAspectRatio="xMidYMid meet">
<metadata>
Created by potrace 1.16, written by Peter Selinger 2001-2019
</metadata>
<g transform="translate(0.000000,417.000000) scale(0.100000,-0.100000)"
fill="#000000" stroke="none">
<path d="M1512 3176 c-357 -68 -630 -283 -740 -585 -78 -214 -70 -510 18 -740
157 -405 567 -734 1051 -843 146 -32 418 -33 557 0 112 26 267 87 362 142 281
164 532 489 659 854 17 49 30 90 29 91 -2 1 -38 11 -80 22 l-77 21 -22 -67
c-30 -93 -128 -292 -186 -379 -223 -330 -495 -503 -855 -542 -114 -13 -208 -7
-350 21 -461 91 -870 452 -970 854 -32 129 -32 337 0 448 84 293 313 483 656
542 407 70 871 -133 1026 -449 46 -92 60 -156 60 -265 -1 -174 -52 -305 -164
-417 -85 -85 -179 -134 -305 -160 -250 -50 -490 64 -599 285 -36 72 -37 79
-37 181 0 97 2 110 25 143 69 101 238 114 359 27 43 -32 80 -95 81 -137 0 -28
2 -29 88 -38 l72 -7 0 58 c0 121 -91 244 -228 307 -56 26 -82 31 -163 35 -111
5 -177 -10 -251 -57 -56 -36 -111 -107 -135 -176 -24 -67 -23 -227 1 -310 61
-207 232 -382 442 -451 81 -26 101 -29 229 -29 157 0 218 12 338 68 195 92
331 257 388 472 28 105 30 300 6 395 -83 315 -366 562 -765 667 -82 22 -124
26 -272 29 -121 2 -198 -1 -248 -10z"/>
</g>
</svg>
