<?xml version="1.0" standalone="no"?>
<!DOCTYPE svg PUBLIC "-//W3C//DTD SVG 20010904//EN"
 "http://www.w3.org/TR/2001/REC-SVG-20010904/DTD/svg10.dtd">
<svg version="1.0" xmlns="http://www.w3.org/2000/svg"
 width="417.000000pt" height="417.000000pt" viewBox="0 0 417.000000 417.000000"
 preserveAspectRatio="xMidYMid meet">
<metadata>
Created by potrace 1.16, written by Peter Selinger 2001-2019
</metadata>
<g transform="translate(0.000000,417.000000) scale(0.100000,-0.100000)"
fill="#000000" stroke="none">
<path d="M610 2766 c0 -232 79 -545 196 -780 227 -454 618 -757 1073 -832 147
-24 366 -15 510 20 490 123 894 518 1070 1051 58 176 101 417 101 573 l0 32
-59 0 -60 0 -5 -52 c-3 -29 -8 -89 -11 -132 -26 -349 -204 -744 -448 -994
-147 -151 -378 -291 -567 -346 -720 -206 -1445 297 -1636 1134 -13 58 -29 169
-36 248 l-12 142 -58 0 -58 0 0 -64z"/>
</g>
</svg>
