<?xml version="1.0" standalone="no"?>
<!DOCTYPE svg PUBLIC "-//W3C//DTD SVG 20010904//EN"
 "http://www.w3.org/TR/2001/REC-SVG-20010904/DTD/svg10.dtd">
<svg version="1.0" xmlns="http://www.w3.org/2000/svg"
 width="417.000000pt" height="417.000000pt" viewBox="0 0 417.000000 417.000000"
 preserveAspectRatio="xMidYMid meet">

<g transform="translate(0.000000,417.000000) scale(0.100000,-0.100000)"
fill="#000000" stroke="none">
<path d="M3209 2908 l-144 -263 -432 -3 -433 -2 0 260 0 260 -90 0 -90 0 0
-260 0 -260 -457 2 -458 3 -142 245 c-78 135 -144 250 -146 255 -4 10 -95 -33
-135 -64 -21 -16 -20 -18 98 -221 66 -113 120 -208 120 -212 0 -5 -115 -8
-255 -8 l-255 0 0 -85 0 -85 303 0 c277 0 305 -2 319 -17 8 -10 226 -384 483
-830 l469 -813 147 0 147 0 454 828 453 827 323 3 322 2 0 85 0 85 -273 2
-273 3 118 215 c65 118 118 220 118 226 0 9 -127 84 -142 84 -3 0 -69 -118
-149 -262z m-1189 -1140 c0 -386 -2 -699 -4 -697 -5 5 -773 1335 -792 1372
l-15 27 406 0 405 0 0 -702z m940 693 c0 -5 -171 -321 -380 -702 l-380 -694 0
703 0 702 380 0 c215 0 380 -4 380 -9z"/>
</g>
</svg>
