<?xml version="1.0" standalone="no"?>
<!DOCTYPE svg PUBLIC "-//W3C//DTD SVG 20010904//EN"
 "http://www.w3.org/TR/2001/REC-SVG-20010904/DTD/svg10.dtd">
<svg version="1.0" xmlns="http://www.w3.org/2000/svg"
 width="417.000000pt" height="417.000000pt" viewBox="0 0 417.000000 417.000000"
 preserveAspectRatio="xMidYMid meet">

<g transform="translate(0.000000,417.000000) scale(0.100000,-0.100000)"
fill="#000000" stroke="none">
<path d="M1950 3030 c-229 -24 -472 -120 -666 -263 -99 -72 -268 -247 -346
-357 -127 -179 -238 -435 -286 -660 -23 -107 -42 -262 -42 -345 l0 -55 59 0
58 0 7 98 c37 532 282 989 670 1251 318 215 704 270 1061 150 392 -132 730
-493 879 -940 40 -120 72 -271 81 -379 3 -41 8 -99 11 -127 l5 -53 60 0 59 0
0 34 c0 138 -45 399 -96 555 -232 708 -858 1159 -1514 1091z"/>
</g>
</svg>
