<svg version="1.0" xmlns="http://www.w3.org/2000/svg" width="556" height="556" viewBox="0 0 417 417"><path d="M101.6 51.9c-1.2 7.5-.9 9.1 2.2 9.1 4.3 0 94.7 5.2 95 5.4.1.2.1 11.1 0 24.2l-.3 24-28.5-4.2c-15.7-2.4-30.1-4.5-32.1-4.8l-3.7-.6-.7 4.6c-.3 2.5-.5 4.7-.3 4.9.2.1 15 2.4 33.1 5.1l32.7 4.8V368h18V126.8l2.8.6c3.1.6 55.2 8.3 59.7 8.8 2.9.3 3 .1 3.6-4.2.4-2.5.6-4.6.5-4.7-.1-.1-15-2.4-33.1-5l-33-4.9-.3-25.3-.2-25.3 6.2.6c3.5.4 23.4 1.5 44.3 2.6s40.1 2.2 42.7 2.4l4.6.5.4-6.1c.2-3.5-.1-6.2-.7-6.4-.5-.1-46.7-2.8-102.5-5.8-55.8-3.1-103.4-5.7-105.6-6-4.1-.3-4.2-.3-4.8 3.3z"/></svg>