<?xml version="1.0" encoding="UTF-8" standalone="no"?>
<svg
   version="1.1"
   id="svg97"
   width="200"
   height="200.00002"
   sodipodi:docname="logo.svg"
   inkscape:version="1.3 (0e150ed6c4, 2023-07-21)"
   xmlns:inkscape="http://www.inkscape.org/namespaces/inkscape"
   xmlns:sodipodi="http://sodipodi.sourceforge.net/DTD/sodipodi-0.dtd"
   xmlns="http://www.w3.org/2000/svg"
   xmlns:svg="http://www.w3.org/2000/svg">
  <sodipodi:namedview
     id="namedview1"
     pagecolor="#505050"
     bordercolor="#eeeeee"
     borderopacity="1"
     inkscape:showpageshadow="0"
     inkscape:pageopacity="0"
     inkscape:pagecheckerboard="0"
     inkscape:deskcolor="#505050"
     inkscape:zoom="2.8902433"
     inkscape:cx="92.725757"
     inkscape:cy="122.65403"
     inkscape:window-width="1920"
     inkscape:window-height="1001"
     inkscape:window-x="-9"
     inkscape:window-y="-9"
     inkscape:window-maximized="1"
     inkscape:current-layer="svg97" />
  <defs
     id="defs1">
    <inkscape:path-effect
       effect="fillet_chamfer"
       id="path-effect1"
       is_visible="true"
       lpeversion="1"
       nodesatellites_param="F,0,0,1,0,40,0,1 @ F,0,0,1,0,40,0,1 @ F,0,0,1,0,40,0,1 @ F,0,0,1,0,40,0,1"
       radius="40"
       unit="px"
       method="auto"
       mode="F"
       chamfer_steps="1"
       flexible="false"
       use_knot_distance="true"
       apply_no_radius="true"
       apply_with_radius="true"
       only_selected="false"
       hide_knots="false" />
    <style
       id="style1">.cls-2{fill:#9eb6bb}.cls-3{fill:#ea749b}.cls-5{fill:#67a3d9}.cls-7{opacity:.9}.cls-8{fill:#fff}.cls-10{fill:none}.cls-11{fill:#1d1d1b}</style>
  </defs>
  <g
     id="background"
     transform="matrix(0.96942034,0,0,1.0526539,-111.5512,-121.12888)">
    <path
       id="rect1"
       style="fill:#c8e7f4;stroke-width:1.2572;stroke-dasharray:none;paint-order:markers stroke fill"
       d="m 155.07,115.07 h 126.30885 a 40,40 45 0 1 40,40 v 109.99598 a 40,40 135 0 1 -40,40 H 155.07 a 40,40 45 0 1 -40,-40 V 155.07 a 40,40 135 0 1 40,-40 z"
       inkscape:path-effect="#path-effect1"
       inkscape:original-d="M 115.07,115.07 H 321.37885 V 305.06598 H 115.07 Z" />
  </g>
  <g
     id="Layer_5"
     data-name="Layer 5"
     transform="translate(-121.67979,-86.801852)">
    <ellipse
       class="cls-2"
       cx="201.83"
       cy="241.03999"
       rx="53.540001"
       ry="3.46"
       id="ellipse1" />
    <path
       class="cls-2"
       d="m 273.08,222.69 -6.52,19.61 c -0.14,0.42 -1.11,0.14 -2.19,-0.64 l -1.94,-1.38 c -1.15,-0.83 -2,-1.89 -1.85,-2.33 l 6.54,-19.66 a 1.76,1.76 0 0 1 0.43,-0.72 c 0.75,-0.78 3.81,-2.75 2.68,-8.09 a 1.56,1.56 0 0 1 0.12,-0.91 l 2.2,-6.63 0.07,-0.29 c 0,-0.21 -0.2,-0.61 -0.65,-1 a 3.12,3.12 0 0 0 -1,-0.62 c -1,-0.33 -2.41,-0.76 -2.41,-0.76 a 4.41,4.41 0 0 1 -2,-1.51 c -1,-1.28 0.9,-2.25 0.9,-2.25 1.32,-0.58 3.95,0.51 3.95,0.51 a 14.56,14.56 0 0 1 4.7,3.26 10.28,10.28 0 0 1 2.8,4.66 2,2 0 0 1 0,1.12 l -2.76,8.4 a 1.92,1.92 0 0 1 -0.36,0.64 8,8 0 0 0 -2.62,7.61 2,2 0 0 1 -0.09,0.98 z"
       id="path1" />
  </g>
  <g
     id="g117"
     transform="translate(-233.89033,-32.247837)">
    <path
       d="m 365.27733,100.28327 a 21.21,21.21 0 0 0 2.78125,1.18946 59.7,59.7 0 0 1 3.46875,9.40039 32,32 0 0 1 -4.43359,-1.25781 32,32 0 0 1 -4.20508,-1.88282 c 0.74,-2.31999 1.47255,-4.60604 2.19922,-6.85937 0.07,-0.2 0.12945,-0.38985 0.18945,-0.58985 z"
       style="fill:#ea749b"
       id="path112" />
    <path
       d="m 362.57811,108.7032 a 31.41,31.41 0 0 0 4.50195,2 31.41,31.41 0 0 0 4.75782,1.26953 59.48,59.48 0 0 1 1.58984,9.32031 c -1.105,-0.0438 -2.13022,-0.13186 -3.08203,-0.25391 -0.95182,-0.12205 -1.83008,-0.27695 -2.63672,-0.45703 -0.80664,-0.18008 -1.54342,-0.38568 -2.21289,-0.60351 -0.66947,-0.21783 -1.27219,-0.44828 -1.8125,-0.6836 -0.54031,-0.23531 -1.01834,-0.47451 -1.4375,-0.70703 -0.41916,-0.23252 -0.77797,-0.45851 -1.08398,-0.66797 -0.61204,-0.4189 -1.00735,-0.77156 -1.21485,-0.97656 0.89,-2.73 1.74032,-5.41078 2.57031,-8.05078 z"
       style="fill:#ea749b"
       id="path111" />
    <path
       d="m 359.60741,117.94343 c 0.355,0.325 0.87656,0.74024 1.58984,1.18555 0.35664,0.22265 0.76092,0.45418 1.2168,0.68359 0.45588,0.22942 0.96383,0.45711 1.52539,0.67774 0.56156,0.22062 1.17787,0.43261 1.85156,0.6289 0.67369,0.19629 1.405,0.3768 2.19727,0.53321 0.79226,0.1564 1.64521,0.28964 2.5625,0.39062 0.91728,0.10098 1.89851,0.17117 2.94726,0.20117 a 57.92,57.92 0 0 1 0.0156,0.20313 57.92,57.92 0 0 1 0.0156,0.20508 57.92,57.92 0 0 1 0.0137,0.20507 57.92,57.92 0 0 1 0.0137,0.20508 57.92,57.92 0 0 1 0.0137,0.20508 57.92,57.92 0 0 1 0.0117,0.20508 57.92,57.92 0 0 1 0.0117,0.20508 57.92,57.92 0 0 1 0.01,0.20507 57.92,57.92 0 0 1 0.01,0.20508 57.92,57.92 0 0 1 0.01,0.20508 57.92,57.92 0 0 1 0.008,0.20508 57.92,57.92 0 0 1 0.008,0.20703 57.92,57.92 0 0 1 0.008,0.20508 57.92,57.92 0 0 1 0.006,0.20508 57.92,57.92 0 0 1 0.006,0.20508 57.92,57.92 0 0 1 0.006,0.20508 57.92,57.92 0 0 1 0.004,0.20507 57.92,57.92 0 0 1 0.004,0.20508 57.92,57.92 0 0 1 0.002,0.20703 57.92,57.92 0 0 1 0.002,0.20508 57.92,57.92 0 0 1 0.002,0.20508 57.92,57.92 0 0 1 0,0.20508 57.92,57.92 0 0 1 0,0.20508 57.92,57.92 0 0 1 -0.002,0.20703 57.92,57.92 0 0 1 -0.002,0.20508 57.92,57.92 0 0 1 -0.002,0.20507 57.92,57.92 0 0 1 -0.002,0.20508 57.92,57.92 0 0 1 -0.004,0.20508 57.92,57.92 0 0 1 -0.006,0.20508 57.92,57.92 0 0 1 -0.006,0.20703 57.92,57.92 0 0 1 -0.006,0.20508 57.92,57.92 0 0 1 -0.006,0.20508 57.92,57.92 0 0 1 -0.008,0.20507 57.92,57.92 0 0 1 -0.008,0.20508 57.92,57.92 0 0 1 -0.01,0.20508 57.92,57.92 0 0 1 -0.01,0.20508 c -1.29625,-0.0887 -2.50491,-0.22395 -3.62891,-0.39649 -1.124,-0.17254 -2.16195,-0.38195 -3.12109,-0.61523 -0.95914,-0.23328 -1.83897,-0.49074 -2.64063,-0.76172 -0.80166,-0.27098 -1.52617,-0.55617 -2.17773,-0.8418 -0.65156,-0.28562 -1.22944,-0.57238 -1.73828,-0.84961 -0.50885,-0.27722 -0.94875,-0.54328 -1.32227,-0.78906 -0.74703,-0.49156 -1.23047,-0.8975 -1.48047,-1.125 0.73,-2.12 1.42938,-4.20055 2.10938,-6.31055 z"
       style="fill:#ea749b"
       id="path110" />
    <path
       d="m 357.13866,125.2032 c 0.395,0.3375 0.99625,0.79805 1.83203,1.31055 0.41789,0.25625 0.89342,0.52601 1.43164,0.79883 0.53822,0.27281 1.13938,0.54906 1.80469,0.82031 0.66531,0.27125 1.39615,0.5375 2.19531,0.78906 0.79916,0.25156 1.6657,0.48938 2.60547,0.70313 0.93976,0.21375 1.95193,0.40273 3.03906,0.56054 1.08713,0.15781 2.24899,0.28344 3.49024,0.36719 a 58.7,58.7 0 0 1 -0.91993,7.17969 40.87,40.87 0 0 1 -6.23047,-1.06641 40.87,40.87 0 0 1 -5.99023,-2.01758 40.87,40.87 0 0 1 -5.60937,-2.91601 c 0.82666,-2.16667 1.61156,-4.34264 2.35156,-6.5293 z"
       style="fill:#ea749b"
       id="path109" />
    <path
       d="m 357.66795,134.55281 a 43.73,43.73 0 0 0 7.19727,2.77344 43.73,43.73 0 0 0 7.57227,1.46679 59.26,59.26 0 0 1 -2.15039,7.6504 c -0.5325,-0.2925 -1.34477,-0.76563 -2.32618,-1.41407 -0.4907,-0.32422 -1.02365,-0.69183 -1.58398,-1.10351 -0.56033,-0.41168 -1.14844,-0.86711 -1.75,-1.36524 -0.60156,-0.49812 -1.21764,-1.03949 -1.83203,-1.62304 -0.6144,-0.58356 -1.22735,-1.20899 -1.82617,-1.87696 -0.59883,-0.66797 -1.18342,-1.37754 -1.73829,-2.1289 -0.55486,-0.75137 -1.08,-1.54516 -1.5625,-2.37891 z"
       style="fill:#ea749b"
       id="path108" />
    <path
       d="m 354.41795,132.72273 c 0.37,0.25 0.93993,0.6 1.66993,1 0.49125,0.98875 1.04207,1.92623 1.63281,2.81055 0.59074,0.88431 1.22078,1.71633 1.875,2.49609 0.65422,0.77977 1.33199,1.50655 2.01367,2.18164 0.68168,0.6751 1.36789,1.29883 2.04102,1.86914 0.67312,0.57032 1.33238,1.08733 1.96093,1.55274 0.62856,0.46541 1.22743,0.87789 1.77539,1.23828 1.09594,0.72078 1.99329,1.23125 2.55079,1.53125 -0.07,0.1 -0.0703,0.20008 -0.0703,0.33008 a 59,59 0 0 1 -3,6.5 34.46,34.46 0 0 1 -5.96875,-4.39063 34.46,34.46 0 0 1 -4.89062,-5.5664 34.46,34.46 0 0 1 -3.58985,-6.48243 c 0.7,-1.70999 1.37001,-3.41031 2,-5.07031 z"
       style="fill:#ea749b"
       id="path107" />
    <path
       d="m 351.86717,139.09383 a 35.48,35.48 0 0 0 3.68555,6.29882 35.48,35.48 0 0 0 4.89453,5.41407 35.48,35.48 0 0 0 5.90039,4.29687 l -0.19922,0.36914 c -0.47666,0.85 -0.97299,1.68615 -1.48632,2.50782 -0.51334,0.82166 -1.04375,1.62854 -1.59375,2.42187 -0.24,-0.095 -0.55528,-0.23178 -0.9336,-0.41992 -0.37832,-0.18815 -0.82047,-0.42711 -1.3125,-0.72656 -0.49203,-0.29946 -1.0341,-0.65897 -1.61523,-1.08789 -0.58113,-0.42893 -1.20008,-0.92735 -1.84571,-1.50391 -0.64562,-0.57656 -1.31839,-1.23029 -2.0039,-1.97266 -0.68551,-0.74236 -1.38516,-1.57367 -2.08594,-2.5 -0.70078,-0.92632 -1.4023,-1.94771 -2.09375,-3.07617 -0.69144,-1.12845 -1.3718,-2.36414 -2.0293,-3.71289 0.82,-1.82 1.59008,-3.61867 2.33008,-5.38867 z"
       style="fill:#ea749b"
       id="path106" />
    <path
       d="m 348.66795,146.52351 c 0.65,1.28375 1.31868,2.46251 1.9961,3.54297 0.67742,1.08047 1.36281,2.06329 2.04687,2.95703 0.68407,0.89375 1.36719,1.69829 2.03711,2.42188 0.66992,0.72359 1.32789,1.36555 1.96289,1.93555 0.635,0.57 1.24688,1.06703 1.82618,1.5 0.57929,0.43296 1.12609,0.80273 1.6289,1.11523 0.50281,0.3125 0.96164,0.56875 1.36719,0.77734 0.40555,0.2086 0.75742,0.36899 1.04492,0.49024 a 60.51,60.51 0 0 1 -4,5 c -0.625,0.06 -1.2407,0.12242 -1.8457,0.16992 -0.605,0.0475 -1.20016,0.0801 -1.78516,0.0801 -0.0575,-0.0112 -0.1798,-0.0403 -0.35937,-0.10547 -0.17957,-0.0651 -0.41532,-0.16742 -0.69922,-0.32422 -0.28391,-0.1568 -0.61582,-0.36807 -0.98633,-0.6543 -0.37051,-0.28623 -0.77938,-0.64617 -1.21875,-1.0996 -0.43937,-0.45344 -0.90988,-0.99979 -1.40039,-1.65821 -0.49051,-0.65842 -1.00149,-1.42891 -1.52539,-2.33008 -0.52391,-0.90117 -1.06004,-1.93353 -1.59961,-3.11523 -0.53957,-1.1817 -1.08359,-2.51367 -1.62109,-4.01367 0.99999,-2.17 2,-4.29868 3,-6.38867 z"
       style="fill:#ea749b"
       id="path105" />
    <path
       d="m 344.87889,154.44344 c 0.35375,0.95 0.70963,1.83127 1.06641,2.64843 0.35678,0.81717 0.71312,1.56938 1.06836,2.26368 0.35523,0.69429 0.70947,1.33072 1.05859,1.91211 0.34912,0.58138 0.69281,1.10945 1.03125,1.58789 0.33844,0.47843 0.67096,0.90752 0.99414,1.29296 0.32319,0.38545 0.63805,0.72688 0.94141,1.0293 0.30336,0.30242 0.59603,0.56557 0.875,0.79492 0.27896,0.22936 0.54297,0.4236 0.79297,0.58985 a 62.59,62.59 0 0 1 -7.50977,-0.41016 c -0.1125,-0.105 -0.30617,-0.2957 -0.54883,-0.58789 -0.24265,-0.29219 -0.53422,-0.68516 -0.83984,-1.19141 -0.30562,-0.50625 -0.62438,-1.12586 -0.92578,-1.87304 -0.1507,-0.3736 -0.2985,-0.77989 -0.43555,-1.21875 -0.13705,-0.43887 -0.2639,-0.91047 -0.3789,-1.41797 0.97999,-1.84 1.92054,-3.63993 2.81054,-5.41992 z"
       style="fill:#ea749b"
       id="path104" />
    <path
       d="m 341.36717,161.16414 a 13.92,13.92 0 0 0 0.92578,2.50586 13.92,13.92 0 0 0 1.38477,2.2832 c -1.09,-0.155 -2.02445,-0.3207 -2.7832,-0.4707 -0.75875,-0.15 -1.34157,-0.28391 -1.72657,-0.37891 0.76,-1.32 1.48922,-2.63945 2.19922,-3.93945 z"
       style="fill:#ea749b"
       id="path103" />
    <path
       d="m 338.70702,166.02351 a 57.83,57.83 0 0 0 6.83984,1.18946 57.83,57.83 0 0 0 6.93164,0.36133 c 0.77,0 1.56867,-0.0508 2.38867,-0.0508 l 0.041,-0.0508 c 0.88,-0.0333 1.77922,-0.0818 2.69922,-0.14843 l -1.08985,1.13867 -1,0.93945 a 60,60 0 0 1 -6.10937,5.14063 c -0.65875,0.125 -1.35522,0.22455 -2.07617,0.30078 -0.72096,0.0762 -1.46625,0.12851 -2.22071,0.16406 -1.5089,0.0711 -3.05672,0.0705 -4.52734,0.0273 -1.47062,-0.0431 -2.86375,-0.12804 -4.06641,-0.2207 -1.20265,-0.0927 -2.21492,-0.19398 -2.91992,-0.27148 1.55,-2.48 3.01039,-4.9093 4.40039,-7.2793 0.17,-0.31 0.3593,-0.61969 0.5293,-0.92969 z"
       style="fill:#ea749b"
       id="path102" />
    <path
       d="m 332.95702,175.47273 a 87.73,87.73 0 0 0 9.75,0.61133 46.18,46.18 0 0 0 4.90039,-0.25 l -0.44922,0.30859 a 59.69,59.69 0 0 1 -7.4707,4.25 c -0.64,0.3 -1.28946,0.5911 -1.93946,0.8711 a 58.57,58.57 0 0 1 -5.3789,2.02344 58.57,58.57 0 0 1 -5.55078,1.48632 c 1.08999,-1.57999 2.16015,-3.14945 3.16015,-4.68945 0.19,-0.28 0.36883,-0.55984 0.54883,-0.83984 0.74,-1.13 1.45992,-2.25133 2.16992,-3.36133 0.08,-0.14 0.16977,-0.28016 0.25977,-0.41016 z"
       style="fill:#ea749b"
       id="path101" />
    <path
       d="m 347.39842,77.363353 a 60.41,60.41 0 0 1 4.8125,3.619141 60.41,60.41 0 0 1 4.42774,4.080078 c -0.5875,2.464997 -1.34332,5.490199 -2.27344,8.945312 -0.46506,1.727557 -0.97401,3.56362 -1.52734,5.490235 -0.55334,1.926611 -1.15157,3.943751 -1.79493,6.037111 -0.64335,2.09335 -1.33127,4.26245 -2.0664,6.49023 -0.73513,2.22779 -1.51705,4.51385 -2.3457,6.84375 -0.82866,2.3299 -1.70499,4.70382 -2.62891,7.10352 -0.92392,2.3997 -1.89508,4.82649 -2.91602,7.26367 -1.02093,2.43719 -2.09123,4.88382 -3.21093,7.32618 -1.1197,2.44235 -2.28956,4.87971 -3.50977,7.29492 -1.22021,2.41521 -2.49003,4.80831 -3.8125,7.16406 -1.32247,2.35576 -2.69656,4.67352 -4.12305,6.9375 -0.71324,1.13199 -1.44011,2.25053 -2.17968,3.35352 -0.73958,1.10299 -1.4917,2.19177 -2.25782,3.26172 -0.76612,1.06994 -1.54695,2.12143 -2.33984,3.15429 -0.79289,1.03287 -1.5981,2.04732 -2.41797,3.03906 -0.81987,0.99175 -1.65488,1.96162 -2.50195,2.90821 -0.84708,0.94659 -1.70753,1.87019 -2.58203,2.76758 -0.8745,0.89739 -1.76193,1.76913 -2.66407,2.61328 -0.90214,0.84415 -1.81804,1.66039 -2.74804,2.44726 l 0.1289,0.14844 a 58.84,58.84 0 0 1 -5.87695,-1.0293 58.84,58.84 0 0 1 -5.74219,-1.61914 c 1.01313,-1.03031 2.00859,-2.08271 2.98828,-3.15234 0.9797,-1.06963 1.94397,-2.15621 2.89063,-3.26172 0.94666,-1.10551 1.87699,-2.22923 2.79101,-3.36719 0.91403,-1.13795 1.81157,-2.29202 2.69336,-3.45898 0.8818,-1.16696 1.7477,-2.34653 2.59766,-3.53906 0.84996,-1.19254 1.68343,-2.39666 2.50195,-3.61133 1.63705,-2.42934 3.21286,-4.89922 4.72657,-7.39649 1.51371,-2.49726 2.9658,-5.02285 4.35937,-7.56054 1.39357,-2.5377 2.72728,-5.08803 4.00391,-7.63868 1.27663,-2.55064 2.49531,-5.10062 3.6582,-7.63672 1.16289,-2.53609 2.26992,-5.05867 3.32227,-7.55273 1.05234,-2.49406 2.05109,-4.96024 2.99609,-7.38477 0.945,-2.42453 1.83689,-4.80725 2.67773,-7.13476 0.84085,-2.32752 1.6312,-4.59973 2.3711,-6.80274 0.7399,-2.20301 1.43012,-4.337657 2.07226,-6.388671 0.64215,-2.051013 1.23561,-4.019098 1.78321,-5.890625 0.54759,-1.871526 1.04766,-3.645997 1.5039,-5.310547 0.91248,-3.329098 1.64664,-6.216486 2.21289,-8.552734 z"
       style="fill:#ea749b"
       id="path100" />
    <path
       d="m 338.46874,72.414134 c -0.5325,2.048748 -1.19196,4.491116 -1.97852,7.261719 -0.78656,2.770603 -1.70055,5.868597 -2.74805,9.228516 -1.0475,3.359918 -2.22765,6.982132 -3.54297,10.798828 -0.65765,1.908343 -1.34832,3.865593 -2.07421,5.863283 -0.7259,1.99769 -1.48625,4.035 -2.28125,6.10547 -0.795,2.07046 -1.62528,4.1741 -2.49024,6.30078 -0.86496,2.12667 -1.76539,4.27704 -2.70117,6.44336 -0.93578,2.16632 -1.9066,4.34772 -2.91406,6.53711 -1.00746,2.18939 -2.05086,4.38614 -3.13086,6.58203 -1.08,2.1959 -2.19621,4.39034 -3.34961,6.57617 -1.1534,2.18584 -2.34461,4.36228 -3.57227,6.52149 -1.22765,2.15921 -2.49215,4.30196 -3.79492,6.41797 -1.30277,2.11601 -2.64469,4.20547 -4.02344,6.26172 l -0.25,0.36133 a 152.84,152.84 0 0 1 -5.875,8.20312 152.84,152.84 0 0 1 -6.40429,7.79687 60.66,60.66 0 0 0 6.85937,3 c 1.02156,-1.03124 2.02599,-2.08474 3.01367,-3.15625 0.98768,-1.0715 1.95986,-2.16129 2.91407,-3.26953 0.9542,-1.10823 1.89137,-2.23355 2.8125,-3.375 0.92112,-1.14144 1.82639,-2.29957 2.71484,-3.4707 0.88845,-1.17113 1.75906,-2.35543 2.61523,-3.55273 0.85618,-1.1973 1.69718,-2.40701 2.52149,-3.62696 1.64862,-2.4399 3.23426,-4.92227 4.75781,-7.43164 1.52355,-2.50937 2.98501,-5.04697 4.38672,-7.59765 1.40171,-2.55069 2.74427,-5.11391 4.02734,-7.67774 1.28308,-2.56383 2.50617,-5.12697 3.67383,-7.67578 1.16766,-2.54881 2.27852,-5.08422 3.33399,-7.58985 1.05546,-2.50562 2.05546,-4.98174 3.00195,-7.41601 0.94649,-2.43428 1.84091,-4.8254 2.68164,-7.16016 0.84073,-2.33476 1.629,-4.61323 2.36719,-6.82031 0.73819,-2.20709 1.42558,-4.343286 2.06445,-6.394534 0.63887,-2.051248 1.22872,-4.017521 1.77148,-5.884765 0.54277,-1.867245 1.03841,-3.63594 1.48829,-5.291016 0.89974,-3.310153 1.61656,-6.166487 2.16406,-8.458984 a 59.43,59.43 0 0 0 -8.03906,-4.410157 z"
       style="fill:#ea749b"
       id="path99" />
    <path
       d="m 275.3828,171.95906 0.22265,0.22461 c 0.67888,0.66696 1.40049,1.29112 2.17188,1.88477 0.77139,0.59364 1.59139,1.15728 2.46484,1.70703 0.87346,0.54975 1.80009,1.08386 2.78516,1.61914 0.98507,0.53527 2.02852,1.07087 3.13477,1.62109 1.60643,-1.81766 2.16974,-2.46707 2.67187,-3.02148 0.50213,-0.55441 0.94417,-1.01307 2.30859,-2.44531 -1.33326,-0.01 -2.65741,-0.0541 -3.97461,-0.12891 -1.31719,-0.0748 -2.62909,-0.18104 -3.9375,-0.31641 -1.3084,-0.13536 -2.613,-0.29862 -3.91992,-0.49023 -1.30691,-0.19162 -2.61502,-0.41072 -3.92773,-0.6543 z"
       style="fill:#ea749b;stroke-width:0.596598"
       id="path98" />
    <path
       d="m 266.35741,161.92391 a 59.58,59.58 0 0 0 3.75195,4.58203 59.58,59.58 0 0 0 4.18945,4.1875 c 0.725,0.145 1.77391,0.34445 3.04297,0.56054 1.26906,0.2161 2.75758,0.44883 4.36133,0.65821 1.60375,0.20937 3.32172,0.39664 5.05078,0.52148 0.86453,0.0624 1.73325,0.10807 2.58985,0.13477 0.8566,0.0267 1.70093,0.0344 2.52343,0.0156 0.6,-0.76 1.20125,-1.51102 1.78125,-2.29101 l 1.29883,-1.74024 c 1.12,-1.53333 2.21459,-3.08682 3.28125,-4.66015 a 66.22,66.22 0 0 1 -10.63086,0.85156 86.38,86.38 0 0 1 -10.70703,-0.75 86.38,86.38 0 0 1 -10.5332,-2.07031 z"
       style="fill:#ea749b"
       id="path97" />
    <path
       d="m 254.79881,126.25398 v 0.42969 a 58.67,58.67 0 0 0 0.73829,9.33984 35.26,35.26 0 0 0 1.93359,-4.55273 35.26,35.26 0 0 0 1.27734,-4.77735 c -1.36,-0.14 -2.66922,-0.28945 -3.94922,-0.43945 z"
       style="fill:#ea749b"
       id="path96" />
    <path
       d="m 259.7285,126.80281 a 36.86,36.86 0 0 1 -1.53515,5.57031 36.86,36.86 0 0 1 -2.38477,5.25977 59.37,59.37 0 0 0 1.23828,5.25781 59.37,59.37 0 0 0 1.71094,5.12305 52.89,52.89 0 0 0 4.4668,-6.25 52.89,52.89 0 0 0 3.51562,-6.83203 52.89,52.89 0 0 0 2.48828,-7.26758 c -3.26999,-0.25 -6.45,-0.55133 -9.5,-0.86133 z"
       style="fill:#ea749b"
       id="path95" />
    <path
       d="m 270.23827,127.7325 c 2.01333,0.14666 4.04937,0.28039 6.10937,0.40039 a 72,72 0 0 1 -3.2539,9.89844 72,72 0 0 1 -4.64844,9.32617 72,72 0 0 1 -5.94727,8.55664 58.32,58.32 0 0 1 -3.32031,-6.83984 54,54 0 0 0 4.74219,-6.53321 54,54 0 0 0 3.71289,-7.16797 54,54 0 0 0 2.60547,-7.64062 z"
       style="fill:#ea749b"
       id="path94" />
    <path
       d="m 277.36717,128.18367 c 2.43333,0.12 4.87055,0.20953 7.31055,0.26953 -0.39875,1.195 -0.80939,2.36155 -1.23047,3.49805 -0.42108,1.1365 -0.85309,2.24352 -1.29101,3.32031 -0.87584,2.15357 -1.77922,4.18633 -2.68946,6.09375 -0.91023,1.90742 -1.82588,3.6883 -2.72656,5.33985 -0.90068,1.65154 -1.78563,3.17265 -2.63281,4.55859 -0.84719,1.38593 -1.65651,2.63744 -2.40625,3.74805 -0.74975,1.1106 -1.44047,2.0807 -2.04883,2.90625 -1.21672,1.65109 -2.10664,2.72328 -2.49414,3.17578 l -1.66016,-0.42969 c -0.87,-1.24 -1.6907,-2.52031 -2.4707,-3.82031 a 73,73 0 0 0 6.17773,-8.81055 73,73 0 0 0 4.81446,-9.62305 73,73 0 0 0 3.34765,-10.22656 z"
       style="fill:#ea749b"
       id="path93" />
    <path
       d="m 285.7285,128.47273 c 1.3,0.02 2.59868,0.0415 3.88867,0.0215 h 2.45118 a 76.68,76.68 0 0 1 -2.69532,9.29688 76.68,76.68 0 0 1 -3.8457,8.88282 76.68,76.68 0 0 1 -4.93555,8.32812 76.68,76.68 0 0 1 -5.94336,7.64063 c -1.095,-0.18 -2.17859,-0.37946 -3.24609,-0.59571 -1.0675,-0.21625 -2.1193,-0.44836 -3.1543,-0.69336 0.585,-0.705 1.59102,-1.96344 2.86524,-3.74218 0.63711,-0.88938 1.34135,-1.90954 2.09375,-3.05469 0.7524,-1.14516 1.55312,-2.4161 2.38281,-3.8086 0.82969,-1.39249 1.68768,-2.9057 2.55664,-4.53711 0.86896,-1.63141 1.74891,-3.38032 2.61914,-5.24219 0.87023,-1.86187 1.73096,-3.83797 2.56445,-5.92187 0.41675,-1.04196 0.82613,-2.11116 1.22657,-3.20703 0.40043,-1.09588 0.7925,-2.21844 1.17187,-3.36719 z"
       style="fill:#ea749b"
       id="path92" />
    <path
       d="m 301.45702,128.11336 c -0.16938,1.135 -0.38084,2.25984 -0.62891,3.37109 -0.24807,1.11125 -0.53192,2.20882 -0.84766,3.29102 -0.31573,1.08219 -0.6628,2.14943 -1.03515,3.19726 -0.37235,1.04784 -0.76957,2.07582 -1.1875,3.08399 -0.41793,1.00816 -0.85613,1.9958 -1.3086,2.95898 -0.45246,0.96319 -0.91856,1.90156 -1.39453,2.81446 -0.47596,0.91289 -0.96274,1.80089 -1.45117,2.6582 -0.48842,0.8573 -0.9789,1.68406 -1.46875,2.48047 -0.97968,1.59281 -1.95197,3.05959 -2.87109,4.37695 -0.91912,1.31736 -1.78641,2.48688 -2.55664,3.48633 -0.77024,0.99945 -1.44354,1.82771 -1.97657,2.4668 -0.53302,0.63908 -0.92531,1.08796 -1.13281,1.32421 -1.31666,-0.0767 -2.61792,-0.18112 -3.90625,-0.31445 -1.28833,-0.13333 -2.56422,-0.29437 -3.82422,-0.48437 a 78.18,78.18 0 0 0 5.88086,-7.7168 78.18,78.18 0 0 0 4.87891,-8.38477 78.18,78.18 0 0 0 3.80273,-8.92383 78.18,78.18 0 0 0 2.66797,-9.32617 c 1.42,-0.025 2.82961,-0.0643 4.22461,-0.12305 1.395,-0.0588 2.77477,-0.13632 4.13477,-0.23632 z"
       style="fill:#ea749b;fill-opacity:1"
       id="path91" />
    <path
       d="m 309.7285,127.19343 c 0.0725,0.57313 0.0987,1.20262 0.084,1.88086 -0.0147,0.67825 -0.0706,1.40594 -0.16211,2.17188 -0.0915,0.76594 -0.21899,1.57004 -0.37696,2.40625 -0.15796,0.83621 -0.34656,1.70469 -0.56054,2.59375 -0.42797,1.77812 -0.95723,3.6443 -1.54688,5.5293 -0.58965,1.88499 -1.24008,3.78812 -1.9082,5.64062 -0.66813,1.8525 -1.35418,3.65336 -2.01758,5.33399 -0.6634,1.68062 -1.30344,3.24 -1.87891,4.60937 -1.15093,2.73875 -2.04375,4.71555 -2.34375,5.37305 a 66.8,66.8 0 0 1 -7.04882,0.87695 66.8,66.8 0 0 1 -7.10157,0.12305 c 0.38375,-0.4525 0.9087,-1.07903 1.53711,-1.86524 0.62842,-0.78621 1.36157,-1.73093 2.16211,-2.8164 0.80055,-1.08547 1.66823,-2.31184 2.56836,-3.66211 0.90014,-1.35027 1.83258,-2.82563 2.75977,-4.40625 0.92718,-1.58062 1.84877,-3.26645 2.73047,-5.04297 0.44085,-0.88826 0.87123,-1.79969 1.28711,-2.73047 0.41587,-0.93078 0.81738,-1.88063 1.19921,-2.84961 0.38184,-0.96898 0.74526,-1.9561 1.08399,-2.95898 0.33873,-1.00289 0.6529,-2.02221 0.93945,-3.05469 0.28655,-1.03248 0.54422,-2.07895 0.76953,-3.13672 0.22531,-1.05777 0.41922,-2.12633 0.57422,-3.20508 1.25,-0.1 2.47875,-0.21586 3.6875,-0.34961 1.20875,-0.13375 2.3975,-0.28594 3.5625,-0.46094 z"
       style="fill:#ea749b"
       id="path47" />
    <path
       d="m 319.21874,125.08645 a 256.73856,254.82116 0 0 1 -7.93166,16.56835 256.73856,254.82116 0 0 1 -9.11301,15.95856 c 0.88756,-2.09063 1.91854,-4.60432 2.94944,-7.30968 0.51545,-1.35268 1.03067,-2.7523 1.52904,-4.17248 0.49835,-1.4202 0.98032,-2.85988 1.42631,-4.29013 0.44599,-1.43025 0.8566,-2.85236 1.21494,-4.23522 0.35833,-1.38286 0.66345,-2.72584 0.89885,-4.00386 0.2354,-1.27802 0.4009,-2.49009 0.47807,-3.60582 0.0386,-0.55786 0.055,-1.0915 0.0474,-1.59802 -0.007,-0.50651 -0.0386,-0.98531 -0.0968,-1.4333 a 68.394836,67.884045 0 0 0 8.5974,-1.8784 z"
       style="fill:#ea749b;stroke-width:1.00767"
       id="path46" />
    <path
       d="m 329.20702,99.494212 c -1.2,3.479998 -2.50969,7.109378 -3.92969,10.859378 -1.24625,0.49062 -2.52968,0.94482 -3.8457,1.36523 -1.31602,0.42041 -2.66458,0.80587 -4.04102,1.16016 -1.37643,0.35428 -2.77954,0.67648 -4.20703,0.96875 -1.42749,0.29226 -2.87848,0.55472 -4.34766,0.78906 -1.46917,0.23434 -2.95747,0.44059 -4.45898,0.62109 -1.50151,0.18051 -3.01654,0.33603 -4.54102,0.4668 -1.52448,0.13077 -3.05761,0.23713 -4.5957,0.32227 -1.53809,0.0851 -3.0807,0.14976 -4.62305,0.19336 -3.08468,0.0872 -6.16932,0.0954 -9.21484,0.041 -3.04552,-0.0544 -6.05289,-0.17274 -8.98438,-0.33594 -2.93148,-0.16321 -5.78674,-0.37209 -8.52929,-0.61133 -2.74256,-0.23924 -5.37282,-0.50852 -7.85156,-0.79102 a 59.37,59.37 0 0 1 2.07031,-7.41992 c 2.655,0.105 5.48625,0.19742 8.4375,0.26367 2.95125,0.0662 6.02211,0.10743 9.16211,0.10743 2.495,0 5.03195,-0.0255 7.58203,-0.082 2.55007,-0.0565 5.115,-0.14415 7.66406,-0.26954 2.54906,-0.12539 5.08227,-0.28943 7.57422,-0.49609 2.49195,-0.20666 4.94156,-0.4575 7.32031,-0.75781 2.37875,-0.30031 4.68704,-0.6503 6.89649,-1.05664 1.10472,-0.20318 2.18444,-0.42034 3.23632,-0.65235 1.05189,-0.232 2.07633,-0.47785 3.06836,-0.74023 0.99203,-0.26238 1.95179,-0.54163 2.87696,-0.83594 0.92516,-0.29431 1.81472,-0.60386 2.66601,-0.93164 0.85129,-0.32778 1.66515,-0.67235 2.43555,-1.03515 0.7704,-0.36281 1.49719,-0.743208 2.17969,-1.142583 z m -4.40821,12.109378 a 328.5,328.5 0 0 1 -5.06054,12.40039 c -1.05938,0.33625 -2.16405,0.64414 -3.30664,0.92578 -1.14259,0.28164 -2.32292,0.53728 -3.53907,0.76758 -1.21614,0.2303 -2.46801,0.43495 -3.74804,0.61719 -1.28003,0.18224 -2.58957,0.34105 -3.92383,0.47851 -1.33426,0.13746 -2.69149,0.25366 -4.07031,0.34961 -1.37882,0.096 -2.77769,0.17275 -4.19141,0.23047 -2.82744,0.11545 -5.71594,0.15649 -8.625,0.13867 -2.90906,-0.0178 -5.83858,-0.0958 -8.75195,-0.2207 -2.91338,-0.12486 -5.81001,-0.29625 -8.65039,-0.50195 -2.84039,-0.20571 -5.62631,-0.44475 -8.31641,-0.70508 -2.69009,-0.26033 -5.28555,-0.54133 -7.74805,-0.83008 a 60.1,60.1 0 0 1 1,-9.74024 261.06,261.06 0 0 0 14.65039,1.3086 261.06,261.06 0 0 0 14.70118,0.48047 c 1.73124,0 3.46965,-0.0214 5.20898,-0.0684 1.73933,-0.0469 3.47867,-0.11915 5.21289,-0.21875 1.73422,-0.0996 3.46184,-0.22674 5.17774,-0.38477 1.71589,-0.15803 3.42109,-0.34617 5.10546,-0.56836 1.68438,-0.22219 3.34864,-0.47744 4.98829,-0.76953 1.63964,-0.29209 3.25422,-0.62055 4.83593,-0.98828 1.58172,-0.36774 3.13004,-0.77549 4.64063,-1.22461 1.51058,-0.44912 2.98391,-0.94031 4.41015,-1.47656 z"
       style="fill:#ea749b"
       id="path45" />
    <path
       d="m 333.88866,70.584056 a 32.33,32.33 0 0 1 -1.80078,4.88086 32.33,32.33 0 0 1 -2.56055,4.529296 26.83,26.83 0 0 0 3.77344,-2.097656 26.83,26.83 0 0 0 3.38672,-2.673828 c 0.32,-1.159999 0.60132,-2.238516 0.86132,-3.228516 -1.19999,-0.509999 -2.42015,-1.000156 -3.66015,-1.410156 z"
       style="fill:#ea749b"
       id="path43" />
    <path
       d="m 325.48827,68.263744 c -0.405,0.931249 -0.85367,1.84877 -1.33203,2.746093 -0.47836,0.897324 -0.98586,1.773204 -1.51368,2.625 -0.52781,0.851797 -1.07554,1.67799 -1.6289,2.472657 -0.55336,0.794667 -1.11297,1.559219 -1.66797,2.285156 -1.11,1.451874 -2.19875,2.753985 -3.17188,3.861328 -0.97312,1.107343 -1.83156,2.019454 -2.47656,2.689453 a 76.12,76.12 0 0 0 7.06445,-1.716797 76.12,76.12 0 0 0 6.86719,-2.382812 29.94,29.94 0 0 0 3.17774,-5.025391 29.94,29.94 0 0 0 2.12109,-5.554687 58.06,58.06 0 0 0 -7.43945,-2 z"
       style="fill:#ea749b"
       id="path42" />
    <path
       d="m 316.23827,67.283275 c -0.58375,1.123749 -1.22866,2.232267 -1.91602,3.318359 -0.68736,1.086093 -1.4168,2.149767 -2.17187,3.181641 -0.75508,1.031874 -1.53538,2.033048 -2.32227,2.994141 -0.78689,0.961092 -1.58047,1.88211 -2.36328,2.755859 -0.78281,0.873749 -1.556,1.698907 -2.29883,2.46875 -0.74283,0.769843 -1.45609,1.485391 -2.12305,2.134766 -1.3339,1.298748 -2.47992,2.339141 -3.29492,3.05664 2.075,-0.235 4.13813,-0.504297 6.17188,-0.810547 2.03375,-0.306249 4.03805,-0.649297 5.99804,-1.029297 0.27,-0.262499 0.94876,-0.932891 1.875,-1.923828 0.92625,-0.990936 2.09938,-2.302814 3.35938,-3.851562 0.63,-0.774374 1.28258,-1.608399 1.93555,-2.490235 0.65296,-0.881835 1.30773,-1.811329 1.94336,-2.779296 0.63562,-0.967968 1.25211,-1.973087 1.83007,-3.00586 0.57797,-1.032772 1.11571,-2.093673 1.59571,-3.169922 a 58.54,58.54 0 0 0 -8.21875,-0.849609 z"
       style="fill:#ea749b"
       id="path41" />
    <path
       d="m 314.2285,67.283275 a 59.22,59.22 0 0 0 -9.17969,0.710937 113.17,113.17 0 0 1 -6.17968,7.376954 113.17,113.17 0 0 1 -6.78321,6.826171 113.17,113.17 0 0 1 -7.33789,6.226563 c 2.16,-0.11 4.35657,-0.250469 6.57032,-0.417969 2.21374,-0.1675 4.44492,-0.362031 6.66992,-0.582031 0.3425,-0.2875 1.2468,-1.06422 2.49414,-2.222656 0.62367,-0.579218 1.3333,-1.254259 2.10156,-2.011719 0.76826,-0.75746 1.59469,-1.596485 2.45313,-2.505859 0.85843,-0.909374 1.74838,-1.888869 2.64257,-2.923829 0.8942,-1.034959 1.79243,-2.125548 2.66797,-3.259765 0.87555,-1.134218 1.72877,-2.312384 2.53125,-3.519531 0.80248,-1.207148 1.55352,-2.443517 2.22852,-3.697266 z"
       style="fill:#ea749b"
       id="path40" />
    <path
       d="m 303.55858,68.212962 a 58.28,58.28 0 0 0 -9.58008,2.570313 68.68,68.68 0 0 1 -5.97851,6.900391 68.68,68.68 0 0 1 -6.83985,6.044921 68.68,68.68 0 0 1 -7.58203,5.083985 c 2.95,-0.05 6.08985,-0.138828 9.33984,-0.298828 0.32,-0.22 1.11907,-0.783361 2.30079,-1.708985 0.59086,-0.462812 1.27697,-1.016094 2.04687,-1.662109 0.7699,-0.646015 1.62414,-1.385001 2.54883,-2.21875 0.92469,-0.833749 1.92135,-1.763048 2.97656,-2.789063 1.05522,-1.026014 2.1686,-2.150235 3.33008,-3.373046 1.16148,-1.222812 2.36979,-2.544611 3.61328,-3.96875 1.2435,-1.42414 2.52297,-2.95008 3.82422,-4.580079 z"
       style="fill:#ea749b"
       id="path39" />
    <path
       d="m 292.14842,71.503978 a 59.68,59.68 0 0 0 -8.84961,4.441406 59.68,59.68 0 0 0 -7.99414,5.84375 59.68,59.68 0 0 0 -6.91601,7.083985 h 2.94922 c 0.2375,-0.1175 1.0514,-0.511642 2.28906,-1.22461 0.61883,-0.356484 1.34404,-0.793457 2.15625,-1.314453 0.81221,-0.520995 1.70992,-1.126329 2.67773,-1.822265 0.96782,-0.695937 2.0042,-1.481974 3.08985,-2.363282 1.08564,-0.881307 2.22101,-1.858438 3.38672,-2.935547 1.1657,-1.077108 2.36232,-2.25377 3.57031,-3.537109 1.20799,-1.283338 2.42812,-2.671876 3.64062,-4.171875 z"
       style="fill:#ea749b"
       id="path34" />
    <path
       style="fill:#ea749b;fill-opacity:1;stroke-width:0.501099;stroke-linecap:round;stroke-linejoin:round"
       d="m 268.87735,106.32459 c -0.41321,-0.0154 -2.66049,-0.0746 -4.99394,-0.13144 -2.33345,-0.0569 -4.48633,-0.12865 -4.78416,-0.15948 l -0.54153,-0.056 0.32925,-0.83969 c 0.53637,-1.36792 1.04151,-2.51934 1.77406,-4.04377 l 0.69021,-1.436308 h 1.80549 c 3.4525,0 11.50834,-0.282525 16.45981,-0.577258 26.79809,-1.595143 44.88517,-5.847609 53.18812,-12.505091 0.35221,-0.28241 0.65408,-0.500059 0.67082,-0.483665 0.0717,0.0702 -3.54821,11.345515 -3.78779,11.798328 -0.0932,0.176084 -1.28162,0.877665 -2.5685,1.516264 -3.39265,1.68356 -7.63065,2.99388 -13.20797,4.08368 -7.39184,1.44434 -15.74574,2.27413 -27.312,2.71287 -2.26538,0.0859 -16.127,0.18105 -17.72187,0.1216 z"
       id="path113" />
    <path
       style="fill:#ea749b;fill-opacity:1;stroke-width:0.501099;stroke-linecap:round;stroke-linejoin:round"
       d="m 262.07145,98.461098 c 0,-0.412012 3.1327,-5.306613 4.78329,-7.47352 l 0.78054,-1.024692 5.06255,-0.05536 c 18.56965,-0.203051 34.83871,-1.966809 46.25152,-5.014211 7.43395,-1.984981 12.68462,-4.298277 16.78299,-7.394097 0.335,-0.253052 0.41902,-0.28743 0.37674,-0.154159 -0.0299,0.09434 -0.4704,1.580314 -0.97886,3.302174 l -0.92446,3.130656 -0.55714,0.566605 c -7.2447,7.367814 -26.49276,12.073913 -55.93243,13.675331 -6.48038,0.352511 -15.64474,0.610997 -15.64474,0.44127 z"
       id="path114" />
    <path
       style="fill:#ea749b;fill-opacity:1;stroke-width:0.708661;stroke-linecap:round;stroke-linejoin:round"
       d="m 310.625,185.99509 c -0.17188,-0.025 -0.81685,-0.0824 -1.43328,-0.1275 l -1.12078,-0.082 0.49578,-0.44217 c 13.73823,-12.25286 25.84884,-31.79196 36.11933,-58.27447 4.79334,-12.35967 9.6208,-27.739922 12.44905,-39.66266 0.15901,-0.670313 0.32702,-1.21875 0.37336,-1.21875 0.11408,0 2.66205,2.946066 3.62164,4.1875 1.16062,1.501516 2.36029,3.213846 3.3538,4.787 l 0.89001,1.409292 -0.71203,2.762339 c -0.38301,1.485879 -1.32128,4.881749 -2.11993,7.391129 -4.01146,12.60413 -7.02631,20.1524 -9.34473,26.18498 -5.47762,14.25291 -11.94223,27.20203 -20.23276,40.52776 -1.71106,2.75026 -7.55745,11.625 -7.65817,11.625 -0.028,0 -0.74114,0.11185 -1.58482,0.24855 -3.2178,0.52139 -4.84844,0.64844 -8.84647,0.68928 -2.16563,0.0221 -4.07813,0.0198 -4.25,-0.005 z"
       id="path115"
       sodipodi:nodetypes="cscsssssscssssssscc" />
    <path
       style="fill:#ea749b;fill-opacity:1;stroke-width:0.177165;stroke-linecap:round;stroke-linejoin:round"
       d="m 366.82812,99.909826 c -0.68165,-0.305385 -1.21011,-0.580464 -1.19565,-0.622371 0.007,-0.0206 0.11732,-0.364097 0.24491,-0.763325 0.1276,-0.399229 0.23915,-0.726182 0.2479,-0.726563 0.0345,-0.0015 1.21847,2.229123 1.21847,2.295703 0,0.038 -0.10321,10e-4 -0.51563,-0.183444 z"
       id="path116" />
    <path
       style="fill:#afaeae;fill-opacity:1;stroke-width:1.0022;stroke-linecap:round;stroke-linejoin:round"
       d="m 363.20943,205.64197 c -1.10635,-0.58303 -1.44396,-0.857 -1.64297,-1.3333 -0.13777,-0.32971 -0.19991,-0.75883 -0.1381,-0.95359 0.10496,-0.33068 1.19816,-2.25349 9.23141,-16.23695 6.97088,-12.13418 7.88366,-13.72336 10.55964,-18.38477 1.53493,-2.67375 3.68255,-6.41258 4.7725,-8.30851 1.08996,-1.89593 3.23793,-5.63476 4.77328,-8.3085 3.23003,-5.62497 3.14926,-5.50174 5.73554,-8.75045 5.56991,-6.99654 8.72787,-12.61328 11.04142,-19.6382 0.67429,-2.04742 0.42073,-1.58256 9.28694,-17.02589 3.4208,-5.95842 3.61979,-6.37362 3.46078,-7.221228 -0.13552,-0.72239 -0.89717,-1.563905 -1.56782,-1.732229 -0.28503,-0.07154 -1.27776,0.09359 -2.60251,0.432889 -1.17793,0.301698 -2.25172,0.548542 -2.3862,0.548542 -0.13448,0 -0.37384,-0.197404 -0.53193,-0.438675 -0.27318,-0.416921 -0.26126,-0.49363 0.24026,-1.546796 0.89588,-1.881287 3.11911,-4.511559 4.77885,-5.6538 1.00458,-0.691352 2.71929,-1.451748 3.89872,-1.728908 2.02697,-0.476321 3.94989,0.175678 5.03261,1.706384 0.81942,1.158472 0.97292,1.725278 0.98786,3.647578 0.0159,2.042402 -0.35678,4.025999 -1.03488,5.508723 -0.26883,0.58782 -3.61506,6.5179 -7.43607,13.17796 -6.49626,11.32306 -7.11585,12.33358 -9.54377,15.56538 -2.92331,3.89122 -3.88485,5.28551 -5.46575,7.92566 -2.02105,3.37521 -4.08594,7.80604 -5.13398,11.01644 -0.23512,0.72022 -1.92977,3.87527 -4.32027,8.04334 -20.53642,35.80725 -28.65673,49.86237 -28.95922,50.12436 -0.58333,0.50523 -1.50101,0.37362 -3.03634,-0.43546 z"
       id="path117" />
  </g>
  <g
     id="Layer_3"
     data-name="Layer 3"
     transform="translate(-122.31951,-87.753698)">
    <path
       d="m 189.89858,276.32473 -10,0.35 -13.68,-2.51 -10.04,-4.33 -9.15,-6 -5.93,-6 -4,-4 -2.55,-4.41 -4.16,-7.3 -2.29,-5.71 -3.13,-11.87 c 0,0 -0.29,-7 -0.26,-7.21 0.03,-0.21 0.4,-10.49 0.4,-10.49 l 3.43,-11.8 2.56,-6 4.07,-6.06 c 0,0 9.61,64.3 54.73,93.34 z"
       id="path48"
       style="fill:#ce6a93"
       transform="translate(18.10223,-34.235997)" />
    <path
       d="m 192.86,241.63 c 0,0 -54.91,-5.82 -50.17,-71 0,-0.02 11.69,53.11 50.17,71 z"
       id="path50"
       style="fill:#9b5473" />
    <path
       class="cls-8"
       d="m 223.55,135.3 c 3.28,1.16 6.09,4 8.58,6.33 a 76.76,76.76 0 0 1 7.24,7.84 73.07,73.07 0 0 1 10.69,18.36 2.57,2.57 0 0 0 3.07,1.74 2.52,2.52 0 0 0 1.75,-3.07 80.53,80.53 0 0 0 -12,-20.56 75.14,75.14 0 0 0 -7.84,-8.41 c -3,-2.79 -6.25,-5.67 -10.18,-7.06 a 2.53,2.53 0 0 0 -3.08,1.75 2.56,2.56 0 0 0 1.75,3.08 z"
       id="path51"
       transform="translate(1.014203e-6)" />
    <path
       class="cls-8"
       d="m 311.12,147.94 a 7,7 0 0 1 1.81,1 3.15,3.15 0 0 1 0.8,1.89 6.56,6.56 0 0 1 -0.13,2.34 6.4,6.4 0 0 1 -0.31,1.14 9.05,9.05 0 0 0 -0.4,1.14 c -0.3,1.25 1.62,1.78 1.93,0.53 a 12,12 0 0 1 0.45,-1.27 9.14,9.14 0 0 0 0.32,-1.3 8.89,8.89 0 0 0 0.06,-3.17 4.8,4.8 0 0 0 -1.22,-2.62 7.72,7.72 0 0 0 -2.3,-1.43 1,1 0 0 0 -1,1.73 z"
       id="path49"
       transform="translate(1.014203e-6)" />
  </g>
  <g
     id="Layer_1_copy"
     data-name="Layer 1 copy"
     transform="translate(-121.99445,-88.508741)">
    <path
       class="cls-10"
       d="m 180.28,127.77 a 59.68,59.68 0 0 0 -23.76,17.37 h 2.95 c 0.95,-0.47 11.11,-5.37 20.81,-17.37 z"
       id="path52" />
    <path
       class="cls-10"
       d="m 161.71,145.08 c 2.95,-0.05 6.09,-0.14 9.34,-0.3 1.28,-0.88 10.23,-7.26 20.64,-20.3 a 58.28,58.28 0 0 0 -9.58,2.57 68.68,68.68 0 0 1 -20.4,18.03 z"
       id="path53" />
    <path
       class="cls-10"
       d="m 187.88,143.46 c 4.15,-0.47 8.25,-1.08 12.17,-1.84 1.08,-1.05 8.7,-8.61 12.54,-17.22 a 58.54,58.54 0 0 0 -8.22,-0.85 c -4.67,8.99 -13.23,17.04 -16.49,19.91 z"
       id="path54" />
    <path
       class="cls-10"
       d="m 222.38,140.06 c 0.74,-2.46 1.39,-4.73 2,-6.78 -13.4,11.14 -47.77,12.91 -68.24,12.91 h -0.4 a 59.81,59.81 0 0 0 -5.71,8.67 c 23.33,-0.32 61.68,-2.75 72.35,-14.8 z"
       id="path55" />
    <path
       class="cls-10"
       d="m 172.88,144.69 c 4.32,-0.22 8.79,-0.56 13.24,-1 1.37,-1.15 11.72,-10.11 17.12,-20.14 h -0.88 a 59.22,59.22 0 0 0 -9.18,0.71 113.17,113.17 0 0 1 -20.3,20.43 z"
       id="path56" />
    <path
       class="cls-10"
       d="m 207.87,180.27 a 328.5,328.5 0 0 0 5.06,-12.4 c -11.41,4.29 -25.73,5.7 -39.58,5.7 a 261.06,261.06 0 0 1 -29.35,-1.79 60.1,60.1 0 0 0 -1,9.74 c 19.7,2.31 47.92,4.13 64.87,-1.25 z"
       id="path57" />
    <path
       class="cls-10"
       d="m 215.76,137.11 a 29.94,29.94 0 0 0 5.3,-10.58 58.06,58.06 0 0 0 -7.44,-2 c -3.24,7.45 -9.21,14 -11.79,16.68 a 76.12,76.12 0 0 0 13.93,-4.1 z"
       id="path58" />
    <path
       class="cls-10"
       d="m 162.78,218.91 a 76.68,76.68 0 0 0 17.42,-34.15 h -6.34 c -6.07,18.38 -15.14,30.06 -17.48,32.88 2.07,0.47 4.21,0.91 6.4,1.27 z"
       id="path59" />
    <path
       class="cls-10"
       d="m 213.41,166.62 c 1.42,-3.75 2.73,-7.38 3.93,-10.86 -10.92,6.39 -33.54,8 -53.5,8 -6.28,0 -12.29,-0.16 -17.6,-0.37 a 59.37,59.37 0 0 0 -2.07,7.42 c 19.83,2.26 49.3,3.66 69.24,-4.19 z"
       id="path60" />
    <path
       class="cls-10"
       d="m 242.92,188 a 40.87,40.87 0 0 0 17.83,6 58.7,58.7 0 0 0 0.92,-7.18 c -9.93,-0.67 -14.82,-4 -16.4,-5.35 q -1.11,3.28 -2.35,6.53 z"
       id="path61" />
    <path
       class="cls-10"
       d="m 258.42,202.71 a 59.26,59.26 0 0 0 2.15,-7.65 43.73,43.73 0 0 1 -14.77,-4.24 c 3.86,6.67 10.49,10.72 12.62,11.89 z"
       id="path62" />
    <path
       class="cls-10"
       d="m 244.22,190 c -0.73,-0.4 -1.3,-0.75 -1.67,-1 -0.63,1.66 -1.3,3.36 -2,5.07 A 34.46,34.46 0 0 0 255,210.5 59,59 0 0 0 258,204 c 0,-0.1 0.08,-0.2 0.11,-0.3 -2.27,-1.23 -9.96,-5.8 -13.89,-13.7 z"
       id="path63" />
    <path
       class="cls-10"
       d="m 189.59,184.38 c -2.72,0.2 -5.52,0.31 -8.36,0.36 A 78.18,78.18 0 0 1 164,219.09 q 3.78,0.57 7.73,0.8 c 1.66,-1.89 15.15,-17.35 17.86,-35.51 z"
       id="path64" />
    <path
       class="cls-10"
       d="m 224.82,131.49 c 0.32,-1.16 0.6,-2.24 0.86,-3.23 -1.2,-0.51 -2.42,-1 -3.66,-1.41 a 32.33,32.33 0 0 1 -4.36,9.41 26.83,26.83 0 0 0 7.16,-4.77 z"
       id="path65" />
    <path
       class="cls-10"
       d="m 261.63,178.56 c -8.39,-0.24 -12.47,-3 -13.89,-4.3 -0.68,2.06 -1.38,4.14 -2.11,6.26 1,0.91 5.74,4.67 16.11,5.38 0.05,-1 0.07,-2 0.07,-3 0,-1.43 -0.07,-2.9 -0.18,-4.34 z"
       id="path66" />
    <path
       class="cls-10"
       d="m 253.22,157.14 q -1.09,3.38 -2.2,6.86 a 32,32 0 0 0 8.64,3.14 59.7,59.7 0 0 0 -3.47,-9.4 21.21,21.21 0 0 1 -2.78,-1.19 c -0.06,0.2 -0.12,0.39 -0.19,0.59 z"
       id="path67" />
    <path
       class="cls-10"
       d="m 255.54,156.42 c -0.41,-0.83 -0.84,-1.64 -1.29,-2.44 l -0.52,1.6 a 18.34,18.34 0 0 0 1.81,0.84 z"
       id="path68" />
    <path
       class="cls-10"
       d="m 250.65,165.16 c -0.83,2.64 -1.68,5.32 -2.57,8.05 0.83,0.82 4.64,4 13.48,4.35 a 59.48,59.48 0 0 0 -1.59,-9.32 31.41,31.41 0 0 1 -9.26,-3.27 z"
       id="path69" />
    <path
       class="cls-10"
       d="m 217.86,154.26 c 1.49,-4.37 2.79,-8.47 3.92,-12.19 -12.66,11.41 -49.75,13.62 -72.34,13.85 a 61.34,61.34 0 0 0 -2.84,6.42 c 22.68,0.88 58.08,0.66 71.26,-8.08 z"
       id="path70" />
    <path
       class="cls-10"
       d="m 230.84,232.35 a 87.73,87.73 0 0 1 -9.75,-0.61 c -0.09,0.13 -0.18,0.27 -0.26,0.41 -0.71,1.11 -1.43,2.23 -2.17,3.36 -0.18,0.28 -0.36,0.56 -0.55,0.84 -1,1.54 -2.07,3.11 -3.16,4.69 a 58.57,58.57 0 0 0 10.93,-3.51 c 0.65,-0.28 1.3,-0.57 1.94,-0.87 a 59.69,59.69 0 0 0 7.47,-4.25 l 0.45,-0.31 a 46.18,46.18 0 0 1 -4.9,0.25 z"
       id="path71" />
    <path
       class="cls-10"
       d="m 231.81,222.22 a 13.92,13.92 0 0 1 -2.31,-4.79 c -0.71,1.3 -1.44,2.62 -2.2,3.94 0.77,0.19 2.33,0.54 4.51,0.85 z"
       id="path72" />
    <path
       class="cls-10"
       d="m 233,210.71 c -0.89,1.78 -1.83,3.58 -2.81,5.42 0.92,4.06 2.68,5.88 3.13,6.29 a 62.59,62.59 0 0 0 7.51,0.41 c -1.94,-1.33 -4.95,-4.52 -7.83,-12.12 z"
       id="path73" />
    <path
       class="cls-10"
       d="m 252.27,156.83 c 0.47,-1.43 0.9,-2.77 1.3,-4 a 59.46,59.46 0 0 0 -8,-10.6 c -4.87,20.21 -20.22,74.55 -49.53,99.86 a 59.78,59.78 0 0 0 17.48,-0.73 c 22,-31.77 29.52,-55.5 36.16,-76.47 0.88,-2.76 1.73,-5.43 2.59,-8.06 z"
       id="path74" />
    <path
       class="cls-10"
       d="m 311.09,145.34 a 11.94,11.94 0 0 0 -6.31,3.15 c -1.95,2 -3.92,4.8 -3.69,5.78 a 1,1 0 0 0 0.41,0.69 1.15,1.15 0 0 0 0.78,0.1 c 0.06,0 2.23,-0.64 3.65,-0.94 a 2,2 0 0 1 0.48,-0.06 1.91,1.91 0 0 1 1.43,0.62 2.23,2.23 0 0 1 0.27,2.54 l -0.4,0.77 -10.81,18.82 a 9.93,9.93 0 0 0 -0.95,2 c -3,10.48 -9.25,18.16 -12.26,21.84 l -0.9,1.12 a 19.06,19.06 0 0 0 -1.44,2.14 l -31.68,55.16 a 1.75,1.75 0 0 0 -0.16,1.38 1.73,1.73 0 0 0 0.89,1.07 l 2.13,1.11 a 1.77,1.77 0 0 0 2.35,-0.69 l 31.61,-55 a 12.79,12.79 0 0 0 1.14,-2.37 c 3.07,-9.54 8.85,-16.94 11.63,-20.49 l 0.92,-1.2 a 18.08,18.08 0 0 0 1.24,-1.89 l 13.48,-23.51 a 10.32,10.32 0 0 0 1,-2.5 c 0.48,-1.94 1.08,-5.49 -0.3,-7.41 a 4.71,4.71 0 0 0 -4.51,-2.23 z"
       id="path75" />
    <path
       class="cls-10"
       d="m 244.77,141.33 a 60.41,60.41 0 0 0 -9.24,-7.7 C 231,152.32 215.8,206.3 183.38,239.27 a 58.84,58.84 0 0 0 11.62,2.65 l -0.13,-0.15 c 29.76,-25.18 45.2,-80.72 49.9,-100.44 z"
       id="path76" />
    <path
       class="cls-10"
       d="m 240,195.36 -0.39,0.92 c -0.74,1.77 -1.51,3.57 -2.33,5.39 5.26,10.79 12,14.24 13.92,15 q 1.65,-2.38 3.08,-4.93 l 0.2,-0.37 A 35.48,35.48 0 0 1 240,195.36 Z"
       id="path77" />
    <path
       class="cls-10"
       d="m 243,223.78 c -0.82,0 -1.62,0.05 -2.39,0.05 a 57.83,57.83 0 0 1 -13.77,-1.55 l -0.18,0.31 c -0.17,0.31 -0.36,0.62 -0.53,0.93 -1.39,2.37 -2.85,4.8 -4.4,7.28 2.82,0.31 10.54,1 15.81,0 a 60,60 0 0 0 6.11,-5.14 l 1,-0.94 1.09,-1.14 q -1.46,0.16 -2.74,0.2 z"
       id="path78" />
    <path
       class="cls-10"
       d="m 236.8,202.79 -0.13,0.3 c -1,2.09 -2,4.22 -3,6.39 4.3,12 8.95,13.21 9.41,13.3 1.17,0 2.38,-0.13 3.63,-0.25 a 60.51,60.51 0 0 0 4,-5 c -2.3,-0.97 -8.71,-4.47 -13.91,-14.74 z"
       id="path79" />
    <path
       class="cls-10"
       d="m 187.15,219 c 1.2,-2.63 11.87,-26.37 10.71,-35.54 -2.33,0.35 -4.75,0.61 -7.25,0.81 -2.48,17.26 -14.54,32.11 -17.61,35.73 a 66.8,66.8 0 0 0 14.15,-1 z"
       id="path80" />
    <path
       class="cls-10"
       d="m 142.93,182.52 v 0.43 a 58.67,58.67 0 0 0 0.74,9.34 35.26,35.26 0 0 0 3.21,-9.33 c -1.36,-0.14 -2.67,-0.29 -3.95,-0.44 z"
       id="path81" />
    <path
       class="cls-10"
       d="m 226.6,128.68 c -4.26,16.39 -16.54,58 -38.6,90.9 l -0.25,0.36 a 152.84,152.84 0 0 1 -12.28,16 60.66,60.66 0 0 0 6.86,3 c 32.69,-33 47.93,-87.51 52.31,-105.85 a 59.43,59.43 0 0 0 -8.04,-4.41 z"
       id="path82" />
    <path
       class="cls-10"
       d="m 198.85,183.35 c 0.92,7.14 -4.84,22.2 -8.35,30.53 a 253.83,253.83 0 0 0 16.85,-32.4 67.62,67.62 0 0 1 -8.5,1.87 z"
       id="path83" />
    <path
       class="cls-10"
       d="m 158.37,184 a 54,54 0 0 1 -11.06,21.34 58.32,58.32 0 0 0 3.32,6.84 72,72 0 0 0 13.85,-27.78 q -3.09,-0.18 -6.11,-0.4 z"
       id="path84" />
    <path
       class="cls-10"
       d="m 147.86,183.07 a 36.86,36.86 0 0 1 -3.92,10.83 59.37,59.37 0 0 0 2.95,10.38 52.89,52.89 0 0 0 10.47,-20.35 c -3.27,-0.25 -6.45,-0.55 -9.5,-0.86 z"
       id="path85" />
    <path
       class="cls-10"
       d="m 176,233.87 c 1.12,-1.31 2.22,-2.65 3.3,-4 h -0.33 a 88.47,88.47 0 0 1 -15,-1.6 l 0.28,0.24 a 60.71,60.71 0 0 0 8.93,6.19 l 1.3,0.72 0.09,0.05 0.09,-0.1 z"
       id="path86" />
    <path
       class="cls-10"
       d="m 162.47,227 c 2.86,0.58 10.95,2.08 17.57,1.89 0.6,-0.76 1.2,-1.51 1.78,-2.29 l 1.3,-1.74 q 1.68,-2.3 3.28,-4.66 a 66.22,66.22 0 0 1 -10.63,0.85 86.38,86.38 0 0 1 -21.24,-2.82 59.58,59.58 0 0 0 7.94,8.77 z"
       id="path87" />
    <path
       class="cls-10"
       d="m 172.81,184.72 q -3.66,-0.09 -7.31,-0.27 a 73,73 0 0 1 -14.34,28.66 c 0.78,1.3 1.6,2.58 2.47,3.82 l 1.66,0.43 c 1.55,-1.81 11.14,-13.52 17.52,-32.64 z"
       id="path88" />
    <path
       d="m 316.82,146.63 c -1.28766,-2.01477 -3.63224,-3.09328 -6,-2.76 -2.69906,0.40974 -5.20064,1.65877 -7.15,3.57 -0.77,0.79 -4.61,4.89 -4.09,7.17 0.12622,0.67708 0.52832,1.27119 1.11,1.64 0.59107,0.32721 1.28363,0.42003 1.94,0.26 0,0 2.2,-0.64 3.57,-0.93 0.33,-0.07 0.44,0.06 0.48,0.11 0.19437,0.2349 0.22229,0.56586 0.07,0.83 l -11.18,19.54 c -0.45984,0.72562 -0.82925,1.50473 -1.1,2.32 -2.91,10.18 -9,17.7 -12,21.31 -1.24691,1.48281 -1.92581,2.48077 -2.48,3.45 l -31.62,55.16 c -0.92508,1.6191 -0.316,3.68271 1.34,4.54 l 2.13,1.1 c 1.55288,0.81188 3.46977,0.25095 4.34,-1.27 l 31.61,-55 c 0.51715,-0.83875 0.94292,-1.73051 1.27,-2.66 2.46334,-7.95035 7.27821,-14.72003 12.32,-21.21 0.48525,-0.64218 0.93589,-1.3098 1.35,-2 l 13.47,-23.52 c 0.51665,-0.90239 0.90696,-1.87143 1.16,-2.88 0.64,-2.8 1.11,-6.48 -0.54,-8.77 z m -0.91,8.29 c -0.22272,0.87343 -0.55892,1.71391 -1,2.5 l -13.48,23.51 c -0.37351,0.65525 -0.78765,1.28648 -1.24,1.89 -5.37934,6.52225 -9.70769,13.71546 -12.55,21.69 -0.29755,0.82707 -0.67957,1.62127 -1.14,2.37 l -31.61,55 c -0.47207,0.82232 -1.5083,1.12657 -2.35,0.69 l -2.13,-1.11 c -0.89896,-0.44876 -1.23064,-1.58285 -0.73,-2.45 l 31.68,-55.16 c 0.65066,-1.17667 1.50137,-2.21638 2.34,-3.26 3,-3.68 9.27,-11.36 12.26,-21.84 0.24112,-0.7 0.55977,-1.37083 0.95,-2 l 10.8,-18.75 0.4,-0.77 c 0.45184,-0.81945 0.34401,-1.83384 -0.27,-2.54 -0.36682,-0.4006 -0.88686,-0.62607 -1.43,-0.62 -0.16184,5.1e-4 -0.32302,0.0207 -0.48,0.06 -1.42,0.3 -3.59,0.92 -3.65,0.94 -0.26367,0.0594 -0.53983,0.024 -0.78,-0.1 -0.22702,-0.16266 -0.37568,-0.41284 -0.41,-0.69 -0.23,-1 1.74,-3.77 3.69,-5.78 1.73818,-1.6614 3.93747,-2.75931 6.31,-3.15 1.79848,-0.20533 3.5555,0.63819 4.52,2.17 1.39,1.91 0.78,5.48 0.3,7.4 z"
       id="path89"
       sodipodi:nodetypes="cccccccccccccccccccccccccccccccccccccccccccccccccc" />
    <path
       d="M 263.20158,182.92845 C 259.44582,101.09669 144.12931,102.96849 141.52,182.97 c -0.0716,12.00629 6.81416,57.96282 60.96,60.91 55.85783,-3.01118 60.65762,-52.64658 60.72158,-60.95155 z M 255,210.5 c -6.47737,-3.75979 -11.5535,-9.52749 -14.46,-16.43 0.7,-1.71 1.37,-3.41 2,-5.07 0.37,0.24 0.94,0.59 1.67,1 3.93,7.91 11.62,12.48 13.85,13.68 -0.85227,2.33654 -1.91134,4.61096 -3.06,6.82 z m 3.41,-7.79 c -2.13,-1.17 -8.76,-5.22 -12.62,-11.89 4.63447,2.27405 9.63499,3.70955 14.77,4.24 -0.54143,2.59499 -1.25637,5.15073 -2.14,7.65 z m 2.33,-8.63 c -6.32904,-0.58632 -12.43409,-2.64074 -17.83,-6 0.83333,-2.2 1.61667,-4.36333 2.35,-6.49 1.58,1.33 6.47,4.68 16.4,5.35 -0.15699,2.39637 -0.4609,4.78086 -0.91,7.14 z m -15.12,-13.56 c 0.73,-2.12 1.43,-4.2 2.11,-6.26 1.42,1.27 5.5,4.06 13.89,4.3 0.29093,3.83494 0.16316,6.63056 0.11,7.39 -10.36,-0.76 -15.1,-4.52 -16.1,-5.43 z m 15.93,-3 c -8.84,-0.3 -12.65,-3.53 -13.48,-4.35 0.77528,-2.37812 0.93349,-2.86771 2.63,-8.24 2.89613,1.56877 6.02098,2.67225 9.26,3.27 z m -1.9,-10.42 c -3.01745,-0.61183 -5.93081,-1.65592 -8.65,-3.1 0.79194,-2.48481 1.59028,-4.96778 2.39,-7.45 0.89717,0.4623 1.8262,0.85998 2.78,1.19 z m -4.12,-10.72 c -0.61813,-0.24695 -1.22236,-0.52736 -1.81,-0.84 l 0.52,-1.6 c 1.09787,2.00481 1.32026,2.56104 1.29,2.44 z m -29.86,-28.16 c -0.26,1 -0.54,2.07 -0.86,3.23 -2.11454,1.9648 -4.53228,3.5755 -7.16,4.77 1.95024,-2.88161 3.42251,-6.05915 4.36,-9.41 z m -4.62,-1.73 c -1.04521,3.84415 -2.84706,7.44105 -5.3,10.58 -4.50033,1.8245 -9.16492,3.21417 -13.93,4.15 2.58,-2.64 8.55,-9.23 11.79,-16.68 z m -8.47,-2.13 c -3.84,8.61 -11.46,16.17 -12.54,17.22 -3.92,0.76 -8,1.37 -12.17,1.84 3.26,-2.87 11.82,-10.92 16.49,-19.91 z m -9.35,-0.9 c -5.4,10 -15.75,19 -17.12,20.14 -4.45,0.47 -8.92,0.81 -13.24,1 7.61227,-5.93313 14.4343,-12.81565 20.3,-20.48 z m -11.55,1 c -10.41,13 -19.36,19.42 -20.64,20.3 -3.25,0.16 -6.39,0.25 -9.34,0.3 7.93223,-4.57967 14.86829,-10.69973 20.4,-18 z m -11.41,3.29 c -7.66427,9.8176 -19.86,16.9 -20.81,17.35 h -2.95 c 0,0 6.02742,-10.10535 23.76,-17.35 z m -24.59,18.42 c 22.92938,0 55.58936,-2.06044 68.64,-12.91 -0.56,2.05 -1.21,4.32 -2,6.78 -10.67,12.05 -49,14.48 -72.4,14.8 z m -6.25,9.73 c 22.59,-0.23 59.68,-2.44 72.34,-13.85 -1.13,3.72 -2.43,7.82 -3.92,12.19 -13.18,8.75 -48.58,9 -71.26,8.08 z m -3.2,7.46 c 25.08081,0.9919 57.35097,0.42804 71.1,-7.63 -1.2,3.48 -2.51,7.11 -3.93,10.86 -19.94,7.85 -49.42,6.45 -69.24,4.18 z m -2.26,8.4 c 15.6718,1.8461 47.49473,4.15688 68.95,-3.91 -1.55,4 -3.24,8.19 -5.06,12.4 -17,5.38 -45.17,3.56 -64.92,1.25 z m 33.77,13 h 2.45 c -2.82154,12.67466 -8.81553,24.42522 -17.42,34.15 -2.19,-0.36 -4.33,-0.8 -6.4,-1.29 2.34,-2.82 11.41,-14.5 17.48,-32.88 1.31,0.02 2.61,0.04 3.9,0.04 z m 3.48,0 c 2.84,-0.05 5.64,-0.16 8.36,-0.36 -2.71,18.16 -16.2,33.63 -17.89,35.51 -2.62667,-0.14667 -5.20333,-0.41333 -7.73,-0.8 8.52918,-9.83963 14.46551,-21.65386 17.27,-34.37 z m 16.63,-1.24 c 0.74398,9.29737 -9.51,32.91 -10.71,35.54 -4.66667,0.81381 -9.40667,1.12892 -14.14,0.94 3.07,-3.62 15.13,-18.47 17.61,-35.69 z m 9.49,-2.06 c -4.83145,11.19056 -10.46269,22.01858 -16.85,32.4 3.51,-8.31 8.73328,-23.06399 8.36,-30.51 z m -64.43,1.04 c 1.28,0.15 2.59,0.3 3.94,0.44 -0.62743,3.24508 -1.708,6.38582 -3.21,9.33 -0.64808,-4.09825 -0.73,-7.5276 -0.73,-9.77 z m 1,11.43 c 1.86609,-3.38229 3.1889,-7.03689 3.92,-10.83 3,0.31 6.23,0.61 9.5,0.86 -1.96302,7.46615 -5.53667,14.41207 -10.47,20.35 z m 3.37,11.44 c 5.25779,-6.19797 9.04867,-13.50285 11.09,-21.37 2,0.15333 4.03667,0.28667 6.11,0.4 -2.54189,10.15687 -7.26839,19.63717 -13.85,27.78 z m 3.85,7.77 c 6.84386,-8.37323 11.74187,-18.16243 14.34,-28.66 2.43333,0.12 4.87,0.21 7.31,0.27 -6.38,19.12 -16,30.83 -17.52,32.64 l -1.66,-0.43 z m 3.37,5.08 c 14.36888,3.73718 25.80655,2.91585 31.9,1.93 -2.03881,3.01997 -3.97945,5.67877 -6.36,8.69 -6.62,0.19 -14.71,-1.31 -17.57,-1.89 z m 9.42,10.08 c 7.60394,1.4752 13.9501,1.6 15.33,1.6 -1.50768,1.91568 -3.09535,3.76555 -4.7,5.6 -5.44242,-2.85283 -9.69823,-6.40134 -10.63,-7.2 z m 11.51,7.67 c 8.97596,-10.22093 34.56805,-43.53927 51.13,-107.26 2.77493,1.25292 5.44947,2.71723 8,4.38 C 230.26,151.4 215,206 182.33,238.91 Z m 7.91,3.33 c 32.42,-33 47.66,-87 52.15,-105.64 3.32848,2.25289 6.42382,4.83234 9.24,7.7 -18.20364,76.37783 -49.78,100.59 -49.78,100.59 z m 12.7,2.79 c 29.51111,-25.48366 44.93334,-80.78432 49.53,-99.86 3.05411,3.22352 5.73751,6.77902 8,10.6 -8.45062,31.60395 -22.37852,61.02216 -40.03,88.47 -6.79496,1.31682 -12.04009,1.36712 -17.5,0.79 z m 33.44,-24.67 c 0.45502,1.73028 1.23933,3.35662 2.31,4.79 -2.18,-0.31 -3.74,-0.66 -4.51,-0.85 0.78,-1.31 1.51,-2.63 2.22,-3.93 z m 3.83,5 c -0.45,-0.41 -2.21,-2.23 -3.13,-6.29 1,-1.84 1.92,-3.64 2.81,-5.42 2.87,7.6 5.88,10.79 7.83,12.12 -2.50262,0.0132 -5.00378,-0.12371 -7.49,-0.41 z M 215,241 c 16.46539,-23.86726 -7.48973,10.38739 6.14,-9.3 3.3883,0.40234 9.34659,0.91421 14.65,0.36 -4.00351,2.75797 -11.18828,6.87553 -20.79,8.94 z m 22.47,-10.15 c -5.27,1 -13,0.26 -15.81,0 1.86003,-2.97605 3.06802,-5.00326 5.11,-8.52 0.78953,0.18669 10.04889,2.30773 18.86,1.35 -1.47675,1.54449 -4.33307,4.36326 -8.16,7.17 z m 9.17,-8.32 c -1.25,0.12 -2.46,0.21 -3.63,0.25 -0.46,-0.09 -5.11,-1.33 -9.41,-13.3 1.23642,-2.48428 2.20911,-4.56486 3.13,-6.69 5.22,10.27 11.61,13.77 13.87,14.74 -1.22469,1.73464 -2.53985,3.40362 -3.94,5 z m 4.61,-5.85 c -1.9,-0.79 -8.66,-4.24 -13.92,-15 0.9468,-2.08591 1.82605,-4.20121 2.72,-6.31 3.05888,6.71318 8.13429,12.30591 14.52,16 -0.41178,0.76179 -1.58029,2.8444 -3.3,5.31 z"
       id="path90"
       sodipodi:nodetypes="ccccccccccccccccccccccccccccccccccccccccccccccccccccccccccccccccccccccccccccccccccccccccccccccccccccccccccccccccccccccccccccccccccccccccccccccccccccccccccccccccccccccccccccccccccccccccccccc" />
  </g>
</svg>
