<svg version="1.0" xmlns="http://www.w3.org/2000/svg" width="556" height="556" viewBox="0 0 417 417"><path d="M192.5 87c-15.6 2.2-31.9 7.7-45 15.3-29.6 17-50.9 46.1-58.7 79.9-2.9 12.7-3.1 37.4-.5 49.8 5.6 26 17.2 46.7 36.3 65 23.1 22.1 51.3 33.3 83.9 33.3 25.5 0 50-7.7 70.5-22.1 8.3-5.9 23.3-20.9 29.2-29.2 25.6-36.3 29.4-85.7 9.6-125-6.3-12.4-11.2-19.4-20.8-29.4-18.2-19-39.3-30.8-64.5-36.1-9.2-2-31.2-2.8-40-1.5zm39.7 14c43.4 9.5 77.7 46 84.8 90.3 2 12.1.8 33.9-2.4 45.6-10.5 37.7-40.1 67.3-77.6 77.6-11.8 3.3-33.6 4.5-45.7 2.5-57.4-9.1-98.8-62.8-92.4-119.6 5.1-45.5 36.3-82.5 79.8-94.9 4.8-1.4 12-2.9 15.8-3.4 9.6-1.3 27-.4 37.7 1.9z"/></svg>