<svg version="1.0" xmlns="http://www.w3.org/2000/svg" width="556" height="556" viewBox="0 0 417 417"><path d="M184.5 142.7C136 146.5 98.7 156.9 75 173c-7.9 5.4-16.6 15-19.8 21.7-3.8 8.2-3.9 19.3-.1 27.3 13.1 27.9 64 47.7 133.4 52.1 61.3 3.8 126.2-9.9 156.8-33.1 10.9-8.3 17.7-18.5 19.2-29.1.9-6-1.6-15.8-5.6-22.1-18.4-28.6-81.8-48.3-153.3-47.6-9.4.1-18.9.3-21.1.5zm64 13.8c42.5 4.9 77.5 17.3 94 33 6.7 6.5 9.5 11.9 9.5 18.5 0 6.8-1.9 11-8.1 17.5-14.7 15.6-47.8 28.2-88.9 34.1-17.7 2.5-63.4 3-83 1-56.8-6-99.8-24.9-107-47-8.4-26.1 45.1-53 117-58.6 15.4-1.2 50.4-.4 66.5 1.5z"/></svg>