<svg version="1.0" xmlns="http://www.w3.org/2000/svg" width="556" height="556" viewBox="0 0 417 417"><path d="M96.7 93.8 89 97.5l11.5 24.2c6.3 13.4 11.5 24.5 11.5 24.8 0 .2-10.9.6-24.2.7l-24.3.3-.3 7.7-.3 7.8 28.7.2 28.7.3 38.6 81.7 38.6 81.7h20l38.4-81.9 38.4-82H353v-16l-25.5-.2-25.5-.3 11.5-24.4c6.3-13.4 11.5-24.5 11.5-24.7 0-.4-15.3-7.4-15.6-7.2-.1.2-6.2 13-13.5 28.5L282.7 147l-27.1.2-27.1.3-.3 7.7-.3 7.8 23.5.2 23.5.3-33.3 71c-18.4 39-33.7 70.9-34.2 70.8-.8-.1-67.4-140.1-67.4-141.5 0-.5 9.2-.8 20.5-.8H181v-16h-24.7l-24.8-.1-9.4-20.2c-5.2-11.1-11.3-23.9-13.5-28.4l-4.1-8.2-7.8 3.7z"/></svg>