<svg xmlns="http://www.w3.org/2000/svg" width="557.333" height="556" version="1.0" viewBox="0 0 418 417"><path d="M197.5 95.2c-1.3 2.9-18.6 39.7-38.4 81.8l-35.9 76.5-29.6.3-29.6.2v15h25.5c14.5 0 25.5.4 25.5.9s-5.1 11.9-11.4 25.3l-11.5 24.3 7.7 3.7c4.2 2 7.8 3.5 8 3.3.2-.2 6.4-13.1 13.7-28.7l13.3-28.3 27.1-.3 27.1-.2v-15h-23.1c-21.5 0-23.1-.1-22.7-1.8.9-3.1 66.1-141.2 66.7-141.2.7.1 66 137.8 66.8 141 .5 2 0 2-20.1 2H236v15l24.7.2 24.7.3 8.5 18c4.7 9.9 10.9 22.8 13.6 28.7l5.1 10.6 7.4-3.4c4.1-1.9 7.6-3.6 7.8-3.8.1-.2-4.9-11.4-11.2-24.8-6.4-13.4-11.6-24.7-11.6-25.1 0-.4 11-.7 24.5-.7H354v-15h-56.8l-38.8-82-38.8-82H199.9l-2.4 5.2z"/></svg>